<svg aria-hidden="true" style="position: absolute; width: 0; height: 0; overflow: hidden;" version="1.1" xmlns="http://www.w3.org/2000/svg" xmlns:xlink="http://www.w3.org/1999/xlink">
<defs>
<symbol id="sound-on-off-icon" viewBox="0 0 45 32">
<path fill="#fff" style="fill: var(--color1, #fff)" d="M18.089 30.627c0.559 0 1.015-0.177 1.367-0.53s0.529-0.795 0.529-1.325v-25.407c0-0.541-0.179-1.002-0.537-1.383s-0.822-0.571-1.393-0.571c-0.392 0-0.744 0.088-1.057 0.265s-0.682 0.469-1.108 0.878l-7.148 6.625c-0.112 0.099-0.252 0.149-0.419 0.149h-4.816c-1.13 0-1.997 0.306-2.601 0.919s-0.906 1.515-0.906 2.708v6.161c0 1.204 0.302 2.109 0.906 2.716s1.471 0.911 2.601 0.911h4.816c0.168 0 0.308 0.050 0.419 0.149l7.148 6.691c0.38 0.364 0.744 0.629 1.091 0.795s0.716 0.249 1.107 0.249zM25.958 23.058c0.291 0.188 0.61 0.251 0.957 0.19s0.632-0.251 0.856-0.571c0.649-0.839 1.155-1.844 1.519-3.015s0.545-2.391 0.545-3.66-0.182-2.49-0.545-3.66c-0.364-1.17-0.87-2.175-1.519-3.014-0.224-0.32-0.509-0.513-0.856-0.58s-0.666 0-0.957 0.199c-0.336 0.232-0.528 0.533-0.579 0.903s0.059 0.726 0.327 1.068c0.492 0.663 0.87 1.435 1.133 2.319s0.394 1.805 0.394 2.766c0 0.961-0.134 1.88-0.403 2.758s-0.643 1.654-1.124 2.327c-0.257 0.353-0.363 0.712-0.319 1.076s0.235 0.663 0.57 0.894zM32.2 27.381c0.313 0.199 0.643 0.268 0.99 0.207s0.632-0.251 0.856-0.572c1.074-1.458 1.91-3.147 2.509-5.068s0.898-3.903 0.898-5.946-0.297-4.030-0.889-5.963c-0.593-1.932-1.432-3.616-2.517-5.052-0.224-0.32-0.509-0.513-0.856-0.58s-0.677 0.005-0.99 0.215c-0.302 0.21-0.478 0.489-0.528 0.836s0.048 0.693 0.294 1.035c0.917 1.281 1.628 2.744 2.131 4.389s0.755 3.351 0.755 5.118-0.254 3.47-0.763 5.11c-0.509 1.64-1.217 3.106-2.123 4.398-0.235 0.342-0.33 0.687-0.285 1.035s0.218 0.627 0.52 0.837zM38.493 31.77c0.291 0.21 0.615 0.276 0.973 0.199s0.649-0.282 0.873-0.613c0.984-1.402 1.826-2.918 2.525-4.547s1.236-3.348 1.611-5.159c0.375-1.811 0.562-3.694 0.562-5.648s-0.19-3.837-0.57-5.648c-0.38-1.811-0.923-3.531-1.628-5.159s-1.538-3.144-2.5-4.546c-0.224-0.342-0.515-0.549-0.873-0.621s-0.683-0.003-0.973 0.207c-0.313 0.21-0.492 0.491-0.537 0.845s0.050 0.701 0.285 1.043c0.861 1.27 1.608 2.636 2.24 4.099s1.121 3.014 1.468 4.654 0.52 3.348 0.52 5.126c0 1.767-0.173 3.47-0.52 5.11s-0.836 3.197-1.468 4.671c-0.632 1.474-1.379 2.841-2.24 4.099-0.235 0.331-0.33 0.676-0.285 1.035s0.224 0.643 0.537 0.853z"></path>
</symbol>
<symbol id="arrow-more-icon" viewBox="0 0 41 32">
<path fill="#fff" style="fill: var(--color1, #fff)" d="M22.098 31.84c0.438 0 0.854-0.090 1.249-0.269s0.812-0.466 1.249-0.859l14.388-12.934c0.353-0.313 0.596-0.631 0.73-0.955s0.201-0.625 0.201-0.903c0-0.289-0.067-0.596-0.201-0.92s-0.377-0.642-0.73-0.955l-14.388-12.813c-0.486-0.44-0.909-0.755-1.267-0.946s-0.757-0.286-1.195-0.286c-0.644 0-1.17 0.208-1.577 0.625s-0.611 0.914-0.611 1.493v6.562h-0.529c-3.27 0-6.094 0.48-8.471 1.441s-4.328 2.35-5.854 4.167c-1.526 1.817-2.656 4.007-3.392 6.571s-1.103 5.449-1.103 8.655c0 0.752 0.191 1.328 0.574 1.727s0.818 0.599 1.304 0.599c0.389 0 0.781-0.075 1.176-0.226s0.751-0.503 1.067-1.059c1.058-1.898 2.28-3.383 3.666-4.453s2.985-1.826 4.796-2.266c1.812-0.44 3.89-0.66 6.237-0.66h0.529v6.632c0 0.59 0.204 1.076 0.611 1.458s0.921 0.573 1.541 0.573zM23.138 28.108c-0.17 0-0.255-0.087-0.255-0.26v-6.719c0-0.382-0.201-0.573-0.602-0.573h-2.444c-4.328 0-7.866 0.66-10.614 1.979s-4.656 3.067-5.726 5.243c-0.024 0.058-0.049 0.101-0.073 0.13s-0.061 0.044-0.109 0.044c-0.085 0-0.128-0.064-0.128-0.191 0.073-1.632 0.298-3.244 0.675-4.835s0.957-3.087 1.742-4.488c0.784-1.4 1.808-2.636 3.073-3.707s2.815-1.91 4.65-2.517c1.836-0.608 4.006-0.911 6.51-0.911h2.444c0.401 0 0.602-0.191 0.602-0.573v-6.892c0-0.162 0.091-0.243 0.274-0.243 0.049 0 0.1 0.014 0.155 0.043s0.106 0.061 0.155 0.095l12.984 11.858c0.122 0.116 0.183 0.226 0.183 0.33 0 0.046-0.012 0.096-0.037 0.148s-0.073 0.113-0.146 0.182l-13.002 11.701c-0.097 0.104-0.201 0.156-0.31 0.156z"></path>
</symbol>
<symbol id="arrow-next-day-icon" viewBox="0 0 18 32">
<path fill="#fff" style="fill: var(--color1, #fff)" opacity="0.75" d="M18.162 16c0-0.233-0.046-0.452-0.139-0.654s-0.226-0.39-0.399-0.562l-14.708-14.304c-0.334-0.32-0.743-0.479-1.226-0.479-0.31 0-0.594 0.074-0.854 0.221s-0.464 0.347-0.613 0.599c-0.149 0.252-0.223 0.538-0.223 0.857 0 0.455 0.161 0.854 0.483 1.198l13.52 13.124-13.52 13.124c-0.322 0.344-0.483 0.743-0.483 1.198 0 0.32 0.074 0.605 0.223 0.857s0.353 0.452 0.613 0.599c0.26 0.147 0.545 0.221 0.854 0.221 0.483 0 0.891-0.166 1.226-0.498l14.708-14.286c0.173-0.172 0.306-0.359 0.399-0.562s0.139-0.421 0.139-0.654z"></path>
</symbol>
<symbol id="arrow-prev-day-icon" viewBox="0 0 18 32">
<path fill="#fff" style="fill: var(--color1, #fff)" opacity="0.75" d="M0 16c0 0.233 0.046 0.452 0.139 0.654s0.226 0.39 0.399 0.562l14.708 14.304c0.334 0.319 0.743 0.479 1.226 0.479 0.31 0 0.594-0.074 0.854-0.221s0.464-0.347 0.613-0.599c0.149-0.252 0.223-0.538 0.223-0.857 0-0.455-0.161-0.854-0.483-1.198l-13.519-13.124 13.519-13.124c0.322-0.344 0.483-0.743 0.483-1.198 0-0.32-0.074-0.605-0.223-0.857s-0.353-0.452-0.613-0.599c-0.26-0.147-0.545-0.221-0.854-0.221-0.483 0-0.891 0.166-1.226 0.498l-14.708 14.286c-0.173 0.172-0.306 0.359-0.399 0.562s-0.139 0.421-0.139 0.654z"></path>
</symbol>
<symbol id="arrow-right-icon" viewBox="0 0 40 32">
<path fill="#fff" style="fill: var(--color1, #fff)" d="M40 16c0-0.535-0.215-1.006-0.646-1.414l-14.281-13.953c-0.23-0.225-0.463-0.387-0.7-0.485s-0.485-0.148-0.743-0.148c-0.531 0-0.976 0.172-1.335 0.517s-0.539 0.777-0.539 1.298c0 0.253 0.043 0.496 0.129 0.728s0.215 0.433 0.388 0.602l4.825 4.813 8.551 7.641 0.431-1.055-6.936-0.422h-27.248c-0.56 0-1.016 0.176-1.368 0.528s-0.528 0.802-0.528 1.351c0 0.549 0.176 0.999 0.528 1.351s0.808 0.528 1.368 0.528h27.248l6.936-0.422-0.431-1.034-8.551 7.62-4.825 4.813c-0.172 0.169-0.302 0.369-0.388 0.602s-0.129 0.475-0.129 0.728c0 0.521 0.18 0.953 0.539 1.298s0.804 0.517 1.335 0.517c0.517 0 0.984-0.197 1.4-0.591l14.324-13.995c0.431-0.408 0.646-0.88 0.646-1.414z"></path>
</symbol>
<symbol id="moonrise-icon" viewBox="0 0 4 32">
<path d="M1.905 0c1.052 0 1.905 0.853 1.905 1.905v28.19c0 1.052-0.853 1.905-1.905 1.905s-1.905-0.853-1.905-1.905v-28.19c0-1.052 0.853-1.905 1.905-1.905z"></path>
</symbol>
<symbol id="moonset-icon" viewBox="0 0 4 32">
<path d="M1.905 32c-1.052 0-1.905-0.853-1.905-1.905v-28.19c0-1.052 0.853-1.905 1.905-1.905s1.905 0.853 1.905 1.905v28.19c0 1.052-0.853 1.905-1.905 1.905z"></path>
</symbol>
<symbol id="picker-icon" viewBox="0 0 34 32">
<path d="M5.338 32h23.223c1.779 0 3.111-0.449 3.995-1.347s1.326-2.245 1.326-4.041v-21.223c0-1.796-0.442-3.143-1.326-4.041s-2.216-1.347-3.995-1.347h-23.223c-1.779 0-3.114 0.449-4.004 1.347s-1.335 2.245-1.335 4.041v21.223c0 1.796 0.445 3.143 1.335 4.041s2.224 1.347 4.004 1.347zM5.083 29.202c-0.748 0-1.326-0.206-1.734-0.617s-0.612-1.017-0.612-1.816v-16.391c0-0.8 0.204-1.405 0.612-1.816s0.986-0.617 1.734-0.617h23.699c0.759 0 1.343 0.206 1.751 0.617s0.612 1.017 0.612 1.816v16.391c0 0.799-0.204 1.405-0.612 1.816s-0.992 0.617-1.751 0.617h-23.699zM13.635 14.201h1.003c0.295 0 0.502-0.058 0.621-0.174s0.178-0.324 0.178-0.626v-1.026c0-0.301-0.059-0.507-0.178-0.617s-0.326-0.165-0.621-0.165h-1.003c-0.295 0-0.502 0.055-0.621 0.165s-0.178 0.316-0.178 0.617v1.026c0 0.301 0.059 0.51 0.178 0.626s0.326 0.174 0.621 0.174zM19.279 14.201h1.003c0.306 0 0.516-0.058 0.629-0.174s0.17-0.324 0.17-0.626v-1.026c0-0.301-0.057-0.507-0.17-0.617s-0.323-0.165-0.629-0.165h-1.003c-0.295 0-0.499 0.055-0.612 0.165s-0.17 0.316-0.17 0.617v1.026c0 0.301 0.057 0.51 0.17 0.626s0.317 0.174 0.612 0.174zM24.94 14.201h0.986c0.306 0 0.516-0.058 0.629-0.174s0.17-0.324 0.17-0.626v-1.026c0-0.301-0.057-0.507-0.17-0.617s-0.323-0.165-0.629-0.165h-0.986c-0.306 0-0.516 0.055-0.629 0.165s-0.17 0.316-0.17 0.617v1.026c0 0.301 0.057 0.51 0.17 0.626s0.323 0.174 0.629 0.174zM7.99 19.885h1.003c0.295 0 0.499-0.058 0.612-0.174s0.17-0.325 0.17-0.626v-1.008c0-0.313-0.057-0.524-0.17-0.634s-0.317-0.165-0.612-0.165h-1.003c-0.306 0-0.516 0.055-0.629 0.165s-0.17 0.322-0.17 0.634v1.008c0 0.301 0.057 0.51 0.17 0.626s0.323 0.174 0.629 0.174zM13.635 19.885h1.003c0.295 0 0.502-0.058 0.621-0.174s0.178-0.325 0.178-0.626v-1.008c0-0.313-0.059-0.524-0.178-0.634s-0.326-0.165-0.621-0.165h-1.003c-0.295 0-0.502 0.055-0.621 0.165s-0.178 0.322-0.178 0.634v1.008c0 0.301 0.059 0.51 0.178 0.626s0.326 0.174 0.621 0.174zM19.279 19.885h1.003c0.306 0 0.516-0.058 0.629-0.174s0.17-0.325 0.17-0.626v-1.008c0-0.313-0.057-0.524-0.17-0.634s-0.323-0.165-0.629-0.165h-1.003c-0.295 0-0.499 0.055-0.612 0.165s-0.17 0.322-0.17 0.634v1.008c0 0.301 0.057 0.51 0.17 0.626s0.317 0.174 0.612 0.174zM24.94 19.885h0.986c0.306 0 0.516-0.058 0.629-0.174s0.17-0.325 0.17-0.626v-1.008c0-0.313-0.057-0.524-0.17-0.634s-0.323-0.165-0.629-0.165h-0.986c-0.306 0-0.516 0.055-0.629 0.165s-0.17 0.322-0.17 0.634v1.008c0 0.301 0.057 0.51 0.17 0.626s0.323 0.174 0.629 0.174zM7.99 25.569h1.003c0.295 0 0.499-0.055 0.612-0.165s0.17-0.322 0.17-0.635v-1.008c0-0.313-0.057-0.524-0.17-0.634s-0.317-0.165-0.612-0.165h-1.003c-0.306 0-0.516 0.055-0.629 0.165s-0.17 0.322-0.17 0.634v1.008c0 0.313 0.057 0.524 0.17 0.635s0.323 0.165 0.629 0.165zM13.635 25.569h1.003c0.295 0 0.502-0.055 0.621-0.165s0.178-0.322 0.178-0.635v-1.008c0-0.313-0.059-0.524-0.178-0.634s-0.326-0.165-0.621-0.165h-1.003c-0.295 0-0.502 0.055-0.621 0.165s-0.178 0.322-0.178 0.634v1.008c0 0.313 0.059 0.524 0.178 0.635s0.326 0.165 0.621 0.165zM19.279 25.569h1.003c0.306 0 0.516-0.055 0.629-0.165s0.17-0.322 0.17-0.635v-1.008c0-0.313-0.057-0.524-0.17-0.634s-0.323-0.165-0.629-0.165h-1.003c-0.295 0-0.499 0.055-0.612 0.165s-0.17 0.322-0.17 0.634v1.008c0 0.313 0.057 0.524 0.17 0.635s0.317 0.165 0.612 0.165z"></path>
</symbol>
<symbol id="picker-white-icon" viewBox="0 0 34 32">
<path fill="#fff" style="fill: var(--color1, #fff)" d="M5.307 32h23.087c1.769 0 3.093-0.449 3.972-1.347s1.318-2.245 1.318-4.041v-21.223c0-1.796-0.439-3.143-1.318-4.041s-2.203-1.347-3.972-1.347h-23.087c-1.769 0-3.096 0.449-3.98 1.347s-1.327 2.245-1.327 4.041v21.223c0 1.796 0.442 3.143 1.327 4.041s2.211 1.347 3.98 1.347zM5.053 29.202c-0.744 0-1.318-0.206-1.724-0.617s-0.608-1.017-0.608-1.816v-16.391c0-0.8 0.203-1.405 0.608-1.816s0.98-0.617 1.724-0.617h23.56c0.755 0 1.335 0.206 1.741 0.617s0.608 1.017 0.608 1.816v16.391c0 0.799-0.203 1.405-0.608 1.816s-0.986 0.617-1.741 0.617h-23.56zM13.555 14.201h0.997c0.293 0 0.499-0.058 0.617-0.174s0.178-0.324 0.178-0.626v-1.026c0-0.301-0.059-0.507-0.178-0.617s-0.324-0.165-0.617-0.165h-0.997c-0.293 0-0.499 0.055-0.617 0.165s-0.178 0.316-0.178 0.617v1.026c0 0.301 0.059 0.51 0.178 0.626s0.324 0.174 0.617 0.174zM19.166 14.201h0.997c0.304 0 0.513-0.058 0.625-0.174s0.169-0.324 0.169-0.626v-1.026c0-0.301-0.056-0.507-0.169-0.617s-0.321-0.165-0.625-0.165h-0.997c-0.293 0-0.496 0.055-0.608 0.165s-0.169 0.316-0.169 0.617v1.026c0 0.301 0.056 0.51 0.169 0.626s0.315 0.174 0.608 0.174zM24.794 14.201h0.98c0.304 0 0.512-0.058 0.625-0.174s0.169-0.324 0.169-0.626v-1.026c0-0.301-0.056-0.507-0.169-0.617s-0.321-0.165-0.625-0.165h-0.98c-0.304 0-0.513 0.055-0.626 0.165s-0.169 0.316-0.169 0.617v1.026c0 0.301 0.056 0.51 0.169 0.626s0.321 0.174 0.626 0.174zM7.944 19.885h0.997c0.293 0 0.496-0.058 0.608-0.174s0.169-0.325 0.169-0.626v-1.008c0-0.313-0.056-0.524-0.169-0.634s-0.316-0.165-0.608-0.165h-0.997c-0.304 0-0.513 0.055-0.625 0.165s-0.169 0.322-0.169 0.634v1.008c0 0.301 0.056 0.51 0.169 0.626s0.321 0.174 0.625 0.174zM13.555 19.885h0.997c0.293 0 0.499-0.058 0.617-0.174s0.178-0.325 0.178-0.626v-1.008c0-0.313-0.059-0.524-0.178-0.634s-0.324-0.165-0.617-0.165h-0.997c-0.293 0-0.499 0.055-0.617 0.165s-0.178 0.322-0.178 0.634v1.008c0 0.301 0.059 0.51 0.178 0.626s0.324 0.174 0.617 0.174zM19.166 19.885h0.997c0.304 0 0.513-0.058 0.625-0.174s0.169-0.325 0.169-0.626v-1.008c0-0.313-0.056-0.524-0.169-0.634s-0.321-0.165-0.625-0.165h-0.997c-0.293 0-0.496 0.055-0.608 0.165s-0.169 0.322-0.169 0.634v1.008c0 0.301 0.056 0.51 0.169 0.626s0.315 0.174 0.608 0.174zM24.794 19.885h0.98c0.304 0 0.512-0.058 0.625-0.174s0.169-0.325 0.169-0.626v-1.008c0-0.313-0.056-0.524-0.169-0.634s-0.321-0.165-0.625-0.165h-0.98c-0.304 0-0.513 0.055-0.626 0.165s-0.169 0.322-0.169 0.634v1.008c0 0.301 0.056 0.51 0.169 0.626s0.321 0.174 0.626 0.174zM7.944 25.569h0.997c0.293 0 0.496-0.055 0.608-0.165s0.169-0.322 0.169-0.635v-1.008c0-0.313-0.056-0.524-0.169-0.634s-0.316-0.165-0.608-0.165h-0.997c-0.304 0-0.513 0.055-0.625 0.165s-0.169 0.322-0.169 0.634v1.008c0 0.313 0.056 0.524 0.169 0.635s0.321 0.165 0.625 0.165zM13.555 25.569h0.997c0.293 0 0.499-0.055 0.617-0.165s0.178-0.322 0.178-0.635v-1.008c0-0.313-0.059-0.524-0.178-0.634s-0.324-0.165-0.617-0.165h-0.997c-0.293 0-0.499 0.055-0.617 0.165s-0.178 0.322-0.178 0.634v1.008c0 0.313 0.059 0.524 0.178 0.635s0.324 0.165 0.617 0.165zM19.166 25.569h0.997c0.304 0 0.513-0.055 0.625-0.165s0.169-0.322 0.169-0.635v-1.008c0-0.313-0.056-0.524-0.169-0.634s-0.321-0.165-0.625-0.165h-0.997c-0.293 0-0.496 0.055-0.608 0.165s-0.169 0.322-0.169 0.634v1.008c0 0.313 0.056 0.524 0.169 0.635s0.315 0.165 0.608 0.165z"></path>
</symbol>
<symbol id="user-icon" viewBox="0 0 30 32">
<path d="M2.969 31.215h23.281c0.926 0 1.652-0.205 2.179-0.616s0.79-0.975 0.79-1.693c0-1.111-0.338-2.286-1.015-3.524s-1.649-2.399-2.917-3.481c-1.267-1.082-2.801-1.962-4.601-2.639s-3.828-1.016-6.085-1.016c-2.245 0-4.268 0.339-6.068 1.016s-3.336 1.557-4.609 2.639c-1.273 1.082-2.245 2.242-2.917 3.481s-1.007 2.413-1.007 3.524c0 0.718 0.263 1.282 0.79 1.693s1.253 0.616 2.179 0.616zM14.618 15.139c1.238 0 2.384-0.339 3.437-1.016s1.901-1.594 2.543-2.752 0.964-2.46 0.964-3.906c0-1.424-0.321-2.7-0.964-3.828s-1.49-2.017-2.543-2.665c-1.053-0.648-2.199-0.972-3.437-0.972s-2.384 0.33-3.438 0.99c-1.053 0.66-1.901 1.557-2.543 2.691s-0.964 2.407-0.964 3.819c0 1.435 0.321 2.729 0.964 3.88s1.49 2.066 2.543 2.743c1.053 0.677 2.199 1.016 3.438 1.016z"></path>
</symbol>
</defs>
</svg>
