<svg aria-hidden="true" style="position: absolute; width: 0; height: 0; overflow: hidden;" version="1.1" xmlns="http://www.w3.org/2000/svg" xmlns:xlink="http://www.w3.org/1999/xlink">
<defs>
<symbol id="birth-moon-icon" viewBox="0 0 32 32">
<path d="M13.514 6.038l-0.5 1.818-1.8-0.473 1.3 1.37-1.3 1.345 1.8-0.473 0.5 1.843 0.5-1.844 1.8 0.474-1.3-1.344 1.3-1.37-1.8 0.474-0.5-1.819zM7.888 11.17l-0.4 1.445-1.451-0.375 1.051 1.073-1.051 1.069 1.451-0.374 0.4 1.445 0.425-1.445 1.451 0.375-1.051-1.073 1.051-1.071-1.451 0.374-0.425-1.445zM20.39 11.718c1.178 0.517 2.179 1.365 2.88 2.44s1.073 2.331 1.070 3.613c0 3.652-2.948 6.602-6.601 6.602-1.29-0-2.551-0.375-3.63-1.078s-1.929-1.705-2.446-2.882c0.314 1.728 1.227 3.29 2.58 4.415s3.059 1.74 4.821 1.738c0.985 0.002 1.962-0.191 2.872-0.566s1.738-0.926 2.435-1.62c0.697-0.694 1.249-1.519 1.626-2.426s0.569-1.88 0.568-2.862c0.001-1.755-0.617-3.455-1.745-4.803s-2.697-2.258-4.43-2.571v0.001z"></path>
<path fill="none" stroke-miterlimit="4" stroke-width="0.6038" d="M16 0.302c8.67 0 15.698 7.028 15.698 15.698s-7.028 15.698-15.698 15.698c-8.67 0-15.698-7.028-15.698-15.698s7.028-15.698 15.698-15.698z"></path>
</symbol>
<symbol id="ritual-icon" viewBox="0 0 32 32">
<path fill="none" stroke-linejoin="round" stroke-linecap="round" stroke-miterlimit="4" stroke-width="0.6038" d="M21.096 6.642c-0.735-0.009-1.456 0.2-2.071 0.6s-1.098 0.974-1.385 1.647-0.368 1.418-0.23 2.137c0.138 0.719 0.487 1.382 1.003 1.903s1.176 0.877 1.896 1.024c0.72 0.146 1.467 0.076 2.147-0.202s1.261-0.751 1.67-1.359c0.409-0.608 0.628-1.324 0.628-2.056 0-0.971-0.384-1.904-1.069-2.595s-1.616-1.086-2.59-1.098zM23.314 11.396c-0.188 0.321-0.447 0.594-0.757 0.8s-0.664 0.337-1.034 0.385c-0.37 0.048-0.745 0.011-1.098-0.109s-0.673-0.318-0.937-0.581c-0.264-0.262-0.463-0.582-0.584-0.933s-0.158-0.726-0.111-1.094c0.047-0.368 0.179-0.721 0.385-1.031s0.48-0.568 0.801-0.756c0.009-0.006 0.020-0.010 0.031-0.012s0.022-0.001 0.033 0.001c0.011 0.003 0.021 0.007 0.030 0.014s0.016 0.015 0.022 0.024c0.005 0.018 0.005 0.037 0 0.055-0.156 0.433-0.185 0.901-0.084 1.35s0.329 0.86 0.656 1.185c0.327 0.325 0.74 0.55 1.191 0.65s0.921 0.069 1.355-0.088c0.016-0.015 0.038-0.024 0.060-0.024s0.044 0.008 0.060 0.024c0.011 0.009 0.019 0.021 0.024 0.034s0.007 0.027 0.005 0.041c-0.002 0.014-0.007 0.027-0.015 0.038s-0.019 0.020-0.032 0.026v0zM16.867 17.198l-1.376 0.983 0.51 1.583c0.012 0.034 0.010 0.072-0.006 0.105s-0.043 0.058-0.078 0.071c-0.020 0.010-0.042 0.015-0.065 0.015s-0.045-0.005-0.065-0.015l-1.348-1.020-1.357 1.002c-0.015 0.011-0.032 0.018-0.050 0.022s-0.036 0.005-0.054 0.002c-0.018-0.003-0.035-0.010-0.051-0.019s-0.029-0.022-0.040-0.037c-0.009-0.020-0.014-0.041-0.014-0.062s0.005-0.043 0.014-0.062l0.519-1.583-1.39-0.979c-0.015-0.011-0.027-0.025-0.036-0.040s-0.015-0.033-0.018-0.051c-0.003-0.018-0.002-0.036 0.003-0.054s0.012-0.034 0.023-0.049c0.012-0.017 0.028-0.031 0.046-0.041s0.039-0.015 0.060-0.015h1.677l0.514-1.588c0.005-0.018 0.014-0.034 0.026-0.048s0.026-0.026 0.043-0.034c0.017-0.008 0.035-0.013 0.053-0.014s0.037 0.002 0.054 0.008c0.021 0.007 0.039 0.018 0.054 0.034s0.027 0.034 0.034 0.054l0.523 1.583h1.667c0.018-0.003 0.036-0.003 0.054 0.001s0.035 0.012 0.049 0.023c0.015 0.011 0.027 0.024 0.036 0.040s0.015 0.033 0.017 0.051c0.004 0.025 0.001 0.051-0.009 0.075s-0.026 0.044-0.047 0.059h0.023zM20.109 20.23l-0.866 0.619 0.338 1.025c0.004 0.011 0.007 0.022 0.006 0.033s-0.003 0.023-0.008 0.033-0.012 0.020-0.020 0.027c-0.009 0.008-0.019 0.013-0.030 0.017-0.014 0.007-0.029 0.010-0.044 0.010s-0.030-0.004-0.044-0.010l-0.857-0.619-0.857 0.619c-0.009 0.007-0.020 0.012-0.031 0.014s-0.023 0.003-0.034 0.001-0.022-0.007-0.032-0.013c-0.010-0.007-0.018-0.015-0.024-0.025-0.009-0.024-0.009-0.050 0-0.074l0.324-1.006-0.857-0.619c-0.020-0.012-0.033-0.032-0.039-0.054s-0.001-0.046 0.011-0.066c0.008-0.014 0.019-0.025 0.033-0.032s0.030-0.011 0.045-0.009h1.061l0.329-1.006c0.007-0.022 0.023-0.040 0.044-0.051s0.045-0.012 0.067-0.005c0.013 0.004 0.025 0.011 0.035 0.021s0.017 0.022 0.021 0.035l0.296 1.006h1.061c0.023-0.004 0.046 0.001 0.065 0.014s0.032 0.033 0.037 0.055c0.003 0.018 0 0.036-0.007 0.052s-0.019 0.030-0.035 0.040l0.009-0.032zM7.849 8.234v16.201c-0 0.241 0.094 0.472 0.263 0.645s0.399 0.272 0.64 0.278h1.102v-18.024h-1.102c-0.238 0.006-0.464 0.103-0.632 0.27s-0.265 0.393-0.271 0.63v0z"></path>
<path fill="none"  stroke-linejoin="round" stroke-linecap="round" stroke-miterlimit="4" stroke-width="0.6038" d="M19.052 7.245h-8.787v18.113h11.178c0.238 0 0.466-0.098 0.634-0.272s0.263-0.41 0.263-0.657v-10.715"></path>
<path fill="none" stroke="#fff" style="stroke: var(--color2, #fff)" stroke-linejoin="miter" stroke-linecap="butt" stroke-miterlimit="4" stroke-width="0.6038" d="M16 0.302c8.67 0 15.698 7.028 15.698 15.698s-7.028 15.698-15.698 15.698c-8.67 0-15.698-7.028-15.698-15.698s7.028-15.698 15.698-15.698z"></path>
</symbol>
<symbol id="moon-online-icon" viewBox="0 0 32 32">
<path fill="none" stroke="#fff" style="stroke: var(--color2, #fff)" stroke-linejoin="round" stroke-linecap="round" stroke-miterlimit="4" stroke-width="0.6038" d="M16 28.981c7.169 0 12.981-5.812 12.981-12.981s-5.812-12.981-12.981-12.981c-7.169 0-12.981 5.812-12.981 12.981s5.812 12.981 12.981 12.981z"></path>
<path fill="none" stroke="#fff" style="stroke: var(--color2, #fff)" stroke-linejoin="round" stroke-linecap="round" stroke-miterlimit="4" stroke-width="0.6038" d="M28.136 20.589c-1.256-2.087-3.075-3.777-5.248-4.878s-4.611-1.568-7.037-1.348c-2.426 0.22-4.74 1.12-6.679 2.594s-3.422 3.466-4.282 5.745"></path>
<path fill="none" stroke="#fff" style="stroke: var(--color2, #fff)" stroke-linejoin="round" stroke-linecap="round" stroke-miterlimit="4" stroke-width="0.6038" d="M9.66 27.351c-0.302-1.389-0.121-2.294 1.026-3.14 0.368-0.273 0.642-0.652 0.785-1.087 0.063-0.182 0.166-0.347 0.302-0.483s0.301-0.239 0.483-0.302c0.786-0.386 1.681-0.492 2.536-0.302 0.906 0.362 1.328 1.087 2.053 1.389 0.438 0.199 0.935 0.221 1.389 0.060 1.268-0.604 2.053 0.121 2.536 0.966 0.56 0.91 1.186 1.777 1.872 2.596"></path>
<path fill="none" stroke="#fff" style="stroke: var(--color2, #fff)" stroke-linejoin="round" stroke-linecap="round" stroke-miterlimit="4" stroke-width="0.6038" d="M19.443 23.299c-0.060-1.087 0.301-1.503-0.665-1.503-0.423 0-1.026 0-1.208-0.302-0.242-0.604-0.483-0.604-0.906-0.725-0.356-0.173-0.755-0.236-1.147-0.181-0.181 0.060 0.181 0.966-0.302 0.906-0.242-0.060-0.543-1.087-0.966-1.389-0.248-0.11-0.523-0.146-0.791-0.103s-0.518 0.163-0.719 0.345c-0.845 0.785-1.389 0.966-1.932 0.664-0.362-0.181-0.181-1.268 0.060-1.449 0.543-0.362 0.785 0 1.208-0.604 0.121-0.181-0.181-0.604 0.121-1.147s1.509 0 1.992-0.664c0.483-0.664 1.691-1.63 2.657-0.966 0.184 0.147 0.387 0.269 0.604 0.362 0.181 0.121 0.362-0.362 0.604-0.604s0.362-0.181 0.785-0.181c0.74-0.205 1.459-0.483 2.143-0.831M9.504 9.411l-0.805 0.403-0.403 0.805-0.403-0.805-0.805-0.403 0.805-0.403 0.403-0.805 0.403 0.805 0.805 0.403zM26.403 14.066l-0.805 0.403-0.403 0.805-0.403-0.805-0.805-0.403 0.805-0.403 0.403-0.805 0.403 0.805 0.805 0.403z"></path>
<path fill="none" stroke="#fff" style="stroke: var(--color2, #fff)" stroke-linejoin="round" stroke-linecap="round" stroke-miterlimit="4" stroke-width="0.6038" d="M20.802 12.135c1.334 0 2.415-1.081 2.415-2.415s-1.081-2.415-2.415-2.415c-1.334 0-2.415 1.081-2.415 2.415s1.081 2.415 2.415 2.415z"></path>
<path fill="none" stroke="#fff" style="stroke: var(--color2, #fff)" stroke-linejoin="round" stroke-linecap="round" stroke-miterlimit="4" stroke-width="0.6038" d="M9.867 16.272c-0.067-0.26-0.045-0.535 0.062-0.782s0.293-0.45 0.529-0.579c0.236-0.129 0.508-0.175 0.773-0.132s0.508 0.174 0.691 0.371M10.862 14.62l-0.093-2.63M9.776 15.516l-2.699-0.689M11.61 14.797l1.322-2.546M9.631 16.281l-2.626 0.63M10.182 14.88l-1.782-2.168M12.366 15.129l2.202-1.621"></path>
</symbol>
<symbol id="sound-on-off-icon" viewBox="0 0 45 32">
<path fill="#fff" style="fill: var(--color1, #fff)" d="M18.089 30.627c0.559 0 1.015-0.177 1.367-0.53s0.529-0.795 0.529-1.325v-25.407c0-0.541-0.179-1.002-0.537-1.383s-0.822-0.571-1.393-0.571c-0.392 0-0.744 0.088-1.057 0.265s-0.682 0.469-1.108 0.878l-7.148 6.625c-0.112 0.099-0.252 0.149-0.419 0.149h-4.816c-1.13 0-1.997 0.306-2.601 0.919s-0.906 1.515-0.906 2.708v6.161c0 1.204 0.302 2.109 0.906 2.716s1.471 0.911 2.601 0.911h4.816c0.168 0 0.308 0.050 0.419 0.149l7.148 6.691c0.38 0.364 0.744 0.629 1.091 0.795s0.716 0.249 1.107 0.249zM25.958 23.058c0.291 0.188 0.61 0.251 0.957 0.19s0.632-0.251 0.856-0.571c0.649-0.839 1.155-1.844 1.519-3.015s0.545-2.391 0.545-3.66-0.182-2.49-0.545-3.66c-0.364-1.17-0.87-2.175-1.519-3.014-0.224-0.32-0.509-0.513-0.856-0.58s-0.666 0-0.957 0.199c-0.336 0.232-0.528 0.533-0.579 0.903s0.059 0.726 0.327 1.068c0.492 0.663 0.87 1.435 1.133 2.319s0.394 1.805 0.394 2.766c0 0.961-0.134 1.88-0.403 2.758s-0.643 1.654-1.124 2.327c-0.257 0.353-0.363 0.712-0.319 1.076s0.235 0.663 0.57 0.894zM32.2 27.381c0.313 0.199 0.643 0.268 0.99 0.207s0.632-0.251 0.856-0.572c1.074-1.458 1.91-3.147 2.509-5.068s0.898-3.903 0.898-5.946-0.297-4.030-0.889-5.963c-0.593-1.932-1.432-3.616-2.517-5.052-0.224-0.32-0.509-0.513-0.856-0.58s-0.677 0.005-0.99 0.215c-0.302 0.21-0.478 0.489-0.528 0.836s0.048 0.693 0.294 1.035c0.917 1.281 1.628 2.744 2.131 4.389s0.755 3.351 0.755 5.118-0.254 3.47-0.763 5.11c-0.509 1.64-1.217 3.106-2.123 4.398-0.235 0.342-0.33 0.687-0.285 1.035s0.218 0.627 0.52 0.837zM38.493 31.77c0.291 0.21 0.615 0.276 0.973 0.199s0.649-0.282 0.873-0.613c0.984-1.402 1.826-2.918 2.525-4.547s1.236-3.348 1.611-5.159c0.375-1.811 0.562-3.694 0.562-5.648s-0.19-3.837-0.57-5.648c-0.38-1.811-0.923-3.531-1.628-5.159s-1.538-3.144-2.5-4.546c-0.224-0.342-0.515-0.549-0.873-0.621s-0.683-0.003-0.973 0.207c-0.313 0.21-0.492 0.491-0.537 0.845s0.050 0.701 0.285 1.043c0.861 1.27 1.608 2.636 2.24 4.099s1.121 3.014 1.468 4.654 0.52 3.348 0.52 5.126c0 1.767-0.173 3.47-0.52 5.11s-0.836 3.197-1.468 4.671c-0.632 1.474-1.379 2.841-2.24 4.099-0.235 0.331-0.33 0.676-0.285 1.035s0.224 0.643 0.537 0.853z"></path>
</symbol>
<symbol id="arrow-more-icon" viewBox="0 0 41 32">
<path fill="#fff" style="fill: var(--color1, #fff)" d="M22.098 31.84c0.438 0 0.854-0.090 1.249-0.269s0.812-0.466 1.249-0.859l14.388-12.934c0.353-0.313 0.596-0.631 0.73-0.955s0.201-0.625 0.201-0.903c0-0.289-0.067-0.596-0.201-0.92s-0.377-0.642-0.73-0.955l-14.388-12.813c-0.486-0.44-0.909-0.755-1.267-0.946s-0.757-0.286-1.195-0.286c-0.644 0-1.17 0.208-1.577 0.625s-0.611 0.914-0.611 1.493v6.562h-0.529c-3.27 0-6.094 0.48-8.471 1.441s-4.328 2.35-5.854 4.167c-1.526 1.817-2.656 4.007-3.392 6.571s-1.103 5.449-1.103 8.655c0 0.752 0.191 1.328 0.574 1.727s0.818 0.599 1.304 0.599c0.389 0 0.781-0.075 1.176-0.226s0.751-0.503 1.067-1.059c1.058-1.898 2.28-3.383 3.666-4.453s2.985-1.826 4.796-2.266c1.812-0.44 3.89-0.66 6.237-0.66h0.529v6.632c0 0.59 0.204 1.076 0.611 1.458s0.921 0.573 1.541 0.573zM23.138 28.108c-0.17 0-0.255-0.087-0.255-0.26v-6.719c0-0.382-0.201-0.573-0.602-0.573h-2.444c-4.328 0-7.866 0.66-10.614 1.979s-4.656 3.067-5.726 5.243c-0.024 0.058-0.049 0.101-0.073 0.13s-0.061 0.044-0.109 0.044c-0.085 0-0.128-0.064-0.128-0.191 0.073-1.632 0.298-3.244 0.675-4.835s0.957-3.087 1.742-4.488c0.784-1.4 1.808-2.636 3.073-3.707s2.815-1.91 4.65-2.517c1.836-0.608 4.006-0.911 6.51-0.911h2.444c0.401 0 0.602-0.191 0.602-0.573v-6.892c0-0.162 0.091-0.243 0.274-0.243 0.049 0 0.1 0.014 0.155 0.043s0.106 0.061 0.155 0.095l12.984 11.858c0.122 0.116 0.183 0.226 0.183 0.33 0 0.046-0.012 0.096-0.037 0.148s-0.073 0.113-0.146 0.182l-13.002 11.701c-0.097 0.104-0.201 0.156-0.31 0.156z"></path>
</symbol>
<symbol id="arrow-next-day-icon" viewBox="0 0 18 32">
<path fill="#fff" style="fill: var(--color1, #fff)" opacity="0.75" d="M18.162 16c0-0.233-0.046-0.452-0.139-0.654s-0.226-0.39-0.399-0.562l-14.708-14.304c-0.334-0.32-0.743-0.479-1.226-0.479-0.31 0-0.594 0.074-0.854 0.221s-0.464 0.347-0.613 0.599c-0.149 0.252-0.223 0.538-0.223 0.857 0 0.455 0.161 0.854 0.483 1.198l13.52 13.124-13.52 13.124c-0.322 0.344-0.483 0.743-0.483 1.198 0 0.32 0.074 0.605 0.223 0.857s0.353 0.452 0.613 0.599c0.26 0.147 0.545 0.221 0.854 0.221 0.483 0 0.891-0.166 1.226-0.498l14.708-14.286c0.173-0.172 0.306-0.359 0.399-0.562s0.139-0.421 0.139-0.654z"></path>
</symbol>
<symbol id="arrow-prev-day-icon" viewBox="0 0 18 32">
<path fill="#fff" style="fill: var(--color1, #fff)" opacity="0.75" d="M0 16c0 0.233 0.046 0.452 0.139 0.654s0.226 0.39 0.399 0.562l14.708 14.304c0.334 0.319 0.743 0.479 1.226 0.479 0.31 0 0.594-0.074 0.854-0.221s0.464-0.347 0.613-0.599c0.149-0.252 0.223-0.538 0.223-0.857 0-0.455-0.161-0.854-0.483-1.198l-13.519-13.124 13.519-13.124c0.322-0.344 0.483-0.743 0.483-1.198 0-0.32-0.074-0.605-0.223-0.857s-0.353-0.452-0.613-0.599c-0.26-0.147-0.545-0.221-0.854-0.221-0.483 0-0.891 0.166-1.226 0.498l-14.708 14.286c-0.173 0.172-0.306 0.359-0.399 0.562s-0.139 0.421-0.139 0.654z"></path>
</symbol>
<symbol id="arrow-right-icon" viewBox="0 0 40 32">
<path fill="#fff" style="fill: var(--color1, #fff)" d="M40 16c0-0.535-0.215-1.006-0.646-1.414l-14.281-13.953c-0.23-0.225-0.463-0.387-0.7-0.485s-0.485-0.148-0.743-0.148c-0.531 0-0.976 0.172-1.335 0.517s-0.539 0.777-0.539 1.298c0 0.253 0.043 0.496 0.129 0.728s0.215 0.433 0.388 0.602l4.825 4.813 8.551 7.641 0.431-1.055-6.936-0.422h-27.248c-0.56 0-1.016 0.176-1.368 0.528s-0.528 0.802-0.528 1.351c0 0.549 0.176 0.999 0.528 1.351s0.808 0.528 1.368 0.528h27.248l6.936-0.422-0.431-1.034-8.551 7.62-4.825 4.813c-0.172 0.169-0.302 0.369-0.388 0.602s-0.129 0.475-0.129 0.728c0 0.521 0.18 0.953 0.539 1.298s0.804 0.517 1.335 0.517c0.517 0 0.984-0.197 1.4-0.591l14.324-13.995c0.431-0.408 0.646-0.88 0.646-1.414z"></path>
</symbol>
<symbol id="moonrise-icon" viewBox="0 0 4 32">
<path d="M1.905 0c1.052 0 1.905 0.853 1.905 1.905v28.19c0 1.052-0.853 1.905-1.905 1.905s-1.905-0.853-1.905-1.905v-28.19c0-1.052 0.853-1.905 1.905-1.905z"></path>
</symbol>
<symbol id="moonset-icon" viewBox="0 0 4 32">
<path d="M1.905 32c-1.052 0-1.905-0.853-1.905-1.905v-28.19c0-1.052 0.853-1.905 1.905-1.905s1.905 0.853 1.905 1.905v28.19c0 1.052-0.853 1.905-1.905 1.905z"></path>
</symbol>
<symbol id="picker-icon" viewBox="0 0 34 32">
<path d="M5.338 32h23.223c1.779 0 3.111-0.449 3.995-1.347s1.326-2.245 1.326-4.041v-21.223c0-1.796-0.442-3.143-1.326-4.041s-2.216-1.347-3.995-1.347h-23.223c-1.779 0-3.114 0.449-4.004 1.347s-1.335 2.245-1.335 4.041v21.223c0 1.796 0.445 3.143 1.335 4.041s2.224 1.347 4.004 1.347zM5.083 29.202c-0.748 0-1.326-0.206-1.734-0.617s-0.612-1.017-0.612-1.816v-16.391c0-0.8 0.204-1.405 0.612-1.816s0.986-0.617 1.734-0.617h23.699c0.759 0 1.343 0.206 1.751 0.617s0.612 1.017 0.612 1.816v16.391c0 0.799-0.204 1.405-0.612 1.816s-0.992 0.617-1.751 0.617h-23.699zM13.635 14.201h1.003c0.295 0 0.502-0.058 0.621-0.174s0.178-0.324 0.178-0.626v-1.026c0-0.301-0.059-0.507-0.178-0.617s-0.326-0.165-0.621-0.165h-1.003c-0.295 0-0.502 0.055-0.621 0.165s-0.178 0.316-0.178 0.617v1.026c0 0.301 0.059 0.51 0.178 0.626s0.326 0.174 0.621 0.174zM19.279 14.201h1.003c0.306 0 0.516-0.058 0.629-0.174s0.17-0.324 0.17-0.626v-1.026c0-0.301-0.057-0.507-0.17-0.617s-0.323-0.165-0.629-0.165h-1.003c-0.295 0-0.499 0.055-0.612 0.165s-0.17 0.316-0.17 0.617v1.026c0 0.301 0.057 0.51 0.17 0.626s0.317 0.174 0.612 0.174zM24.94 14.201h0.986c0.306 0 0.516-0.058 0.629-0.174s0.17-0.324 0.17-0.626v-1.026c0-0.301-0.057-0.507-0.17-0.617s-0.323-0.165-0.629-0.165h-0.986c-0.306 0-0.516 0.055-0.629 0.165s-0.17 0.316-0.17 0.617v1.026c0 0.301 0.057 0.51 0.17 0.626s0.323 0.174 0.629 0.174zM7.99 19.885h1.003c0.295 0 0.499-0.058 0.612-0.174s0.17-0.325 0.17-0.626v-1.008c0-0.313-0.057-0.524-0.17-0.634s-0.317-0.165-0.612-0.165h-1.003c-0.306 0-0.516 0.055-0.629 0.165s-0.17 0.322-0.17 0.634v1.008c0 0.301 0.057 0.51 0.17 0.626s0.323 0.174 0.629 0.174zM13.635 19.885h1.003c0.295 0 0.502-0.058 0.621-0.174s0.178-0.325 0.178-0.626v-1.008c0-0.313-0.059-0.524-0.178-0.634s-0.326-0.165-0.621-0.165h-1.003c-0.295 0-0.502 0.055-0.621 0.165s-0.178 0.322-0.178 0.634v1.008c0 0.301 0.059 0.51 0.178 0.626s0.326 0.174 0.621 0.174zM19.279 19.885h1.003c0.306 0 0.516-0.058 0.629-0.174s0.17-0.325 0.17-0.626v-1.008c0-0.313-0.057-0.524-0.17-0.634s-0.323-0.165-0.629-0.165h-1.003c-0.295 0-0.499 0.055-0.612 0.165s-0.17 0.322-0.17 0.634v1.008c0 0.301 0.057 0.51 0.17 0.626s0.317 0.174 0.612 0.174zM24.94 19.885h0.986c0.306 0 0.516-0.058 0.629-0.174s0.17-0.325 0.17-0.626v-1.008c0-0.313-0.057-0.524-0.17-0.634s-0.323-0.165-0.629-0.165h-0.986c-0.306 0-0.516 0.055-0.629 0.165s-0.17 0.322-0.17 0.634v1.008c0 0.301 0.057 0.51 0.17 0.626s0.323 0.174 0.629 0.174zM7.99 25.569h1.003c0.295 0 0.499-0.055 0.612-0.165s0.17-0.322 0.17-0.635v-1.008c0-0.313-0.057-0.524-0.17-0.634s-0.317-0.165-0.612-0.165h-1.003c-0.306 0-0.516 0.055-0.629 0.165s-0.17 0.322-0.17 0.634v1.008c0 0.313 0.057 0.524 0.17 0.635s0.323 0.165 0.629 0.165zM13.635 25.569h1.003c0.295 0 0.502-0.055 0.621-0.165s0.178-0.322 0.178-0.635v-1.008c0-0.313-0.059-0.524-0.178-0.634s-0.326-0.165-0.621-0.165h-1.003c-0.295 0-0.502 0.055-0.621 0.165s-0.178 0.322-0.178 0.634v1.008c0 0.313 0.059 0.524 0.178 0.635s0.326 0.165 0.621 0.165zM19.279 25.569h1.003c0.306 0 0.516-0.055 0.629-0.165s0.17-0.322 0.17-0.635v-1.008c0-0.313-0.057-0.524-0.17-0.634s-0.323-0.165-0.629-0.165h-1.003c-0.295 0-0.499 0.055-0.612 0.165s-0.17 0.322-0.17 0.634v1.008c0 0.313 0.057 0.524 0.17 0.635s0.317 0.165 0.612 0.165z"></path>
</symbol>
<symbol id="picker-white-icon" viewBox="0 0 34 32">
<path fill="#fff" style="fill: var(--color1, #fff)" d="M5.307 32h23.087c1.769 0 3.093-0.449 3.972-1.347s1.318-2.245 1.318-4.041v-21.223c0-1.796-0.439-3.143-1.318-4.041s-2.203-1.347-3.972-1.347h-23.087c-1.769 0-3.096 0.449-3.98 1.347s-1.327 2.245-1.327 4.041v21.223c0 1.796 0.442 3.143 1.327 4.041s2.211 1.347 3.98 1.347zM5.053 29.202c-0.744 0-1.318-0.206-1.724-0.617s-0.608-1.017-0.608-1.816v-16.391c0-0.8 0.203-1.405 0.608-1.816s0.98-0.617 1.724-0.617h23.56c0.755 0 1.335 0.206 1.741 0.617s0.608 1.017 0.608 1.816v16.391c0 0.799-0.203 1.405-0.608 1.816s-0.986 0.617-1.741 0.617h-23.56zM13.555 14.201h0.997c0.293 0 0.499-0.058 0.617-0.174s0.178-0.324 0.178-0.626v-1.026c0-0.301-0.059-0.507-0.178-0.617s-0.324-0.165-0.617-0.165h-0.997c-0.293 0-0.499 0.055-0.617 0.165s-0.178 0.316-0.178 0.617v1.026c0 0.301 0.059 0.51 0.178 0.626s0.324 0.174 0.617 0.174zM19.166 14.201h0.997c0.304 0 0.513-0.058 0.625-0.174s0.169-0.324 0.169-0.626v-1.026c0-0.301-0.056-0.507-0.169-0.617s-0.321-0.165-0.625-0.165h-0.997c-0.293 0-0.496 0.055-0.608 0.165s-0.169 0.316-0.169 0.617v1.026c0 0.301 0.056 0.51 0.169 0.626s0.315 0.174 0.608 0.174zM24.794 14.201h0.98c0.304 0 0.512-0.058 0.625-0.174s0.169-0.324 0.169-0.626v-1.026c0-0.301-0.056-0.507-0.169-0.617s-0.321-0.165-0.625-0.165h-0.98c-0.304 0-0.513 0.055-0.626 0.165s-0.169 0.316-0.169 0.617v1.026c0 0.301 0.056 0.51 0.169 0.626s0.321 0.174 0.626 0.174zM7.944 19.885h0.997c0.293 0 0.496-0.058 0.608-0.174s0.169-0.325 0.169-0.626v-1.008c0-0.313-0.056-0.524-0.169-0.634s-0.316-0.165-0.608-0.165h-0.997c-0.304 0-0.513 0.055-0.625 0.165s-0.169 0.322-0.169 0.634v1.008c0 0.301 0.056 0.51 0.169 0.626s0.321 0.174 0.625 0.174zM13.555 19.885h0.997c0.293 0 0.499-0.058 0.617-0.174s0.178-0.325 0.178-0.626v-1.008c0-0.313-0.059-0.524-0.178-0.634s-0.324-0.165-0.617-0.165h-0.997c-0.293 0-0.499 0.055-0.617 0.165s-0.178 0.322-0.178 0.634v1.008c0 0.301 0.059 0.51 0.178 0.626s0.324 0.174 0.617 0.174zM19.166 19.885h0.997c0.304 0 0.513-0.058 0.625-0.174s0.169-0.325 0.169-0.626v-1.008c0-0.313-0.056-0.524-0.169-0.634s-0.321-0.165-0.625-0.165h-0.997c-0.293 0-0.496 0.055-0.608 0.165s-0.169 0.322-0.169 0.634v1.008c0 0.301 0.056 0.51 0.169 0.626s0.315 0.174 0.608 0.174zM24.794 19.885h0.98c0.304 0 0.512-0.058 0.625-0.174s0.169-0.325 0.169-0.626v-1.008c0-0.313-0.056-0.524-0.169-0.634s-0.321-0.165-0.625-0.165h-0.98c-0.304 0-0.513 0.055-0.626 0.165s-0.169 0.322-0.169 0.634v1.008c0 0.301 0.056 0.51 0.169 0.626s0.321 0.174 0.626 0.174zM7.944 25.569h0.997c0.293 0 0.496-0.055 0.608-0.165s0.169-0.322 0.169-0.635v-1.008c0-0.313-0.056-0.524-0.169-0.634s-0.316-0.165-0.608-0.165h-0.997c-0.304 0-0.513 0.055-0.625 0.165s-0.169 0.322-0.169 0.634v1.008c0 0.313 0.056 0.524 0.169 0.635s0.321 0.165 0.625 0.165zM13.555 25.569h0.997c0.293 0 0.499-0.055 0.617-0.165s0.178-0.322 0.178-0.635v-1.008c0-0.313-0.059-0.524-0.178-0.634s-0.324-0.165-0.617-0.165h-0.997c-0.293 0-0.499 0.055-0.617 0.165s-0.178 0.322-0.178 0.634v1.008c0 0.313 0.059 0.524 0.178 0.635s0.324 0.165 0.617 0.165zM19.166 25.569h0.997c0.304 0 0.513-0.055 0.625-0.165s0.169-0.322 0.169-0.635v-1.008c0-0.313-0.056-0.524-0.169-0.634s-0.321-0.165-0.625-0.165h-0.997c-0.293 0-0.496 0.055-0.608 0.165s-0.169 0.322-0.169 0.634v1.008c0 0.313 0.056 0.524 0.169 0.635s0.315 0.165 0.608 0.165z"></path>
</symbol>
<symbol id="user-icon" viewBox="0 0 30 32">
<path d="M2.969 31.215h23.281c0.926 0 1.652-0.205 2.179-0.616s0.79-0.975 0.79-1.693c0-1.111-0.338-2.286-1.015-3.524s-1.649-2.399-2.917-3.481c-1.267-1.082-2.801-1.962-4.601-2.639s-3.828-1.016-6.085-1.016c-2.245 0-4.268 0.339-6.068 1.016s-3.336 1.557-4.609 2.639c-1.273 1.082-2.245 2.242-2.917 3.481s-1.007 2.413-1.007 3.524c0 0.718 0.263 1.282 0.79 1.693s1.253 0.616 2.179 0.616zM14.618 15.139c1.238 0 2.384-0.339 3.437-1.016s1.901-1.594 2.543-2.752 0.964-2.46 0.964-3.906c0-1.424-0.321-2.7-0.964-3.828s-1.49-2.017-2.543-2.665c-1.053-0.648-2.199-0.972-3.437-0.972s-2.384 0.33-3.438 0.99c-1.053 0.66-1.901 1.557-2.543 2.691s-0.964 2.407-0.964 3.819c0 1.435 0.321 2.729 0.964 3.88s1.49 2.066 2.543 2.743c1.053 0.677 2.199 1.016 3.438 1.016z"></path>
</symbol>
</defs>
</svg>
